{"title":"The Block - S12E08 - Guest Bedrooms Revealed","uid":15748416,"size":512858833,"categoryP":"video","categoryS":"tv_shows","magnet":"?xt=urn:btih:0573dc2d89c6a7b518ffc3f36fb900ef188e75d3&amp;dn=The+Block+-+S12E08+-+Guest+Bedrooms+Revealed&amp;tr=udp%3A%2F%2Ftracker.leechers-paradise.org%3A6969&amp;tr=udp%3A%2F%2Fzer0day.ch%3A1337&amp;tr=udp%3A%2F%2Fopen.demonii.com%3A1337&amp;tr=udp%3A%2F%2Ftracker.coppersurfer.tk%3A6969&amp;tr=udp%3A%2F%2Fexodus.desync.com%3A6969","seeders":7,"leechers":2,"uploader":"Bullrout","files":1,"time":1472998540,"description":"The Block - S12E08 - Guest Bedrooms Revealed\r\n\r\nAfter seven gruelling days of renovating their guest bedrooms, the teams are keen to impress the judges with their ideas. There's more art deco design from some couples, while others have struggled to embrace the style of the building.\r\n\r\n\r\n\r\nComplete name                            : The Block - S12E08 - Guest Bedrooms Revealed.mp4\r\nFormat                                   : MPEG-4\r\nFormat profile                           : Base Media / Version 2\r\nCodec ID                                 : mp42 (mp42/isom/avc1)\r\nFile size                                : 489 MiB\r\nDuration                                 : 1h 1mn\r\nOverall bit rate mode                    : Variable\r\nOverall bit rate                         : 1 114 Kbps\r\n\r\nVideo\r\nID                                       : 2\r\nFormat                                   : AVC\r\nFormat/Info                              : Advanced Video Codec\r\nFormat profile                           :   \r\nFormat settings, CABAC                   : Yes\r\nFormat settings, ReFrames                : 3 frames\r\nCodec ID                                 : avc1\r\nCodec ID/Info                            : Advanced Video Coding\r\nDuration                                 : 1h 1mn\r\nBit rate mode                            : Variable\r\nBit rate                                 : 983 Kbps\r\nMaximum bit rate                         : 1 000 Kbps\r\nWidth                                    : 720 pixels\r\nHeight                                   : 404 pixels\r\nDisplay aspect ratio                     : 16:9\r\nOriginal display aspect ratio            : 16:9\r\nFrame rate mode                          : Constant\r\nFrame rate                               : 25.000 fps\r\nStandard                                 : PAL\r\nColor space                              : YUV\r\nChroma subsampling                       : 4:2:0\r\nBit depth                                : 8 bits\r\nScan type                                : Progressive\r\nBits/(Pixel*Frame)                       : 0.135\r\nStream size                              : 431 MiB (88%)\r\nWriting library                          : x264 core 112\r\nColor range                              : Limited\r\nColor primaries                          : BT.601 PAL\r\nTransfer characteristics                 : BT.470 System B, BT.470 System G\r\nMatrix coefficients                      : BT.601\r\n\r\nAudio\r\nID                                       : 1\r\nFormat                                   : AAC\r\nFormat/Info                              : Advanced Audio Codec\r\nFormat profile                           : LC\r\nCodec ID                                 : 40\r\nDuration                                 : 1h 1mn\r\nBit rate mode                            : Variable\r\nBit rate                                 : 128 Kbps\r\nMaximum bit rate                         : 576 Kbps\r\nChannel(s)                               : 2 channels\r\nChannel positions                        : Front: L R\r\nSampling rate                            : 48.0 KHz\r\nFrame rate                               : 46.875 fps (1024 spf)\r\nCompression mode                         : Lossy\r\nStream size                              : 56.2 MiB (11%)","torrent":{"xt":"urn:btih:0573dc2d89c6a7b518ffc3f36fb900ef188e75d3","amp;dn":"The+Block+-+S12E08+-+Guest+Bedrooms+Revealed","amp;tr":["udp%3A%2F%2Ftracker.leechers-paradise.org%3A6969","udp%3A%2F%2Fzer0day.ch%3A1337","udp%3A%2F%2Fopen.demonii.com%3A1337","udp%3A%2F%2Ftracker.coppersurfer.tk%3A6969","udp%3A%2F%2Fexodus.desync.com%3A6969"],"infoHash":"0573dc2d89c6a7b518ffc3f36fb900ef188e75d3","infoHashBuffer":{"type":"Buffer","data":[5,115,220,45,137,198,167,181,24,255,195,243,111,185,0,239,24,142,117,211]},"announce":[],"urlList":[]}}